# xmcd
#
# Track frame offsets:
#	150
#	12162
#	26455
#	39397
#	53095
#	63435
#	75675
#	87367
#	102622
#
# Disc length: 1540 seconds
#
# Revision: 0
# Processed by: cddbd v1.5.2PL0 Copyright (c) Steve Scherf et al.
# Submitted via: EasyCDDAExtractor 11.1.0.1
#
DISCID=68060209
DTITLE=J.D.Haring - The bad times aren't so bad
DYEAR=1900
DGENRE=country
TTITLE0=Givve it up
TTITLE1=The bad times aren't so bad
TTITLE2=If you ever say you're leavin
TTITLE3=Love of the heart
TTITLE4=I only have time for the dance
TTITLE5=So do I
TTITLE6=Let's have another drink
TTITLE7=Grain of sand
TTITLE8=I went down for the last time
EXTD=
EXTT0=
EXTT1=
EXTT2=
EXTT3=
EXTT4=
EXTT5=
EXTT6=
EXTT7=
EXTT8=
PLAYORDER=
